<svg width="240" height="240" viewBox="0 0 240 240" fill="none" xmlns="http://www.w3.org/2000/svg">
<rect x="50" y="108.179" width="140" height="26" rx="4" fill="#FF000F"/>
<rect x="17" y="117.179" width="30" height="8" fill="#FF000F"/>
<rect x="193" y="117.179" width="30" height="8" fill="#FF000F"/>
<path fill-rule="evenodd" clip-rule="evenodd" d="M112.703 155.846C112.292 155.387 112.331 154.682 112.79 154.27C113.484 153.649 114.304 153.287 115.152 153.2C116.005 153.112 116.876 153.299 117.665 153.778C118.222 154.116 118.695 154.567 119.064 155.098C119.429 155.623 119.703 156.235 119.863 156.895C120.007 157.494 119.64 158.098 119.041 158.243C118.441 158.387 117.837 158.02 117.693 157.42C117.601 157.039 117.441 156.684 117.228 156.377C117.027 156.088 116.785 155.852 116.513 155.686C116.156 155.469 115.763 155.383 115.382 155.422C114.996 155.461 114.615 155.633 114.281 155.932C113.822 156.342 113.117 156.303 112.705 155.844L112.703 155.846ZM122.478 158.244C123.078 158.389 123.681 158.022 123.826 157.422C123.918 157.041 124.078 156.686 124.291 156.379C124.492 156.09 124.734 155.854 125.005 155.688C125.363 155.471 125.755 155.385 126.136 155.424C126.523 155.463 126.904 155.635 127.238 155.934C127.697 156.344 128.402 156.305 128.814 155.846C129.224 155.387 129.185 154.682 128.726 154.27C128.033 153.649 127.212 153.288 126.365 153.2C125.511 153.112 124.64 153.299 123.851 153.778C123.294 154.116 122.822 154.567 122.453 155.098C122.087 155.623 121.814 156.235 121.654 156.895C121.509 157.495 121.876 158.098 122.476 158.243L122.478 158.244ZM120.759 198.457C122.457 198.457 124.013 197.311 125.236 195.397H116.285C117.506 197.309 119.064 198.457 120.761 198.457H120.759ZM118.478 180.951H123.039C122.179 179.823 121.402 178.621 120.757 177.375C120.115 178.621 119.335 179.823 118.476 180.951H118.478ZM114.972 192.709H126.546C126.908 191.735 127.204 190.663 127.423 189.52H114.095C114.314 190.663 114.611 191.733 114.972 192.709ZM125.359 183.643H116.16C116.056 183.75 115.951 183.856 115.847 183.961C115.171 184.637 114.447 185.299 113.681 185.928C113.695 186.233 113.712 186.534 113.736 186.832H127.783C127.806 186.534 127.826 186.233 127.838 185.928C127.072 185.299 126.347 184.637 125.672 183.961C125.566 183.856 125.462 183.75 125.359 183.643ZM115.511 163.715C115.511 163.96 115.529 164.2 115.56 164.436C117.441 164.36 119.292 164.827 120.713 166.247L120.761 166.296C120.777 166.28 120.793 166.262 120.81 166.247C122.23 164.827 124.08 164.36 125.963 164.436C125.996 164.2 126.012 163.96 126.012 163.715C126.012 160.817 123.662 158.465 120.762 158.465C117.861 158.465 115.511 160.815 115.511 163.715ZM136.621 173.012C131.437 167.829 125.209 165.649 122.711 168.147C120.213 170.645 122.39 176.874 127.576 182.057C132.759 187.241 138.988 189.421 141.486 186.922C143.984 184.424 141.806 178.196 136.621 173.012ZM118.81 168.147C116.312 165.649 110.084 167.827 104.9 173.012C99.7167 178.196 97.5367 184.424 100.035 186.922C102.533 189.421 108.761 187.243 113.945 182.057C119.128 176.874 121.308 170.645 118.81 168.147Z" fill="#FF000F"/>
<path d="M60 99.8571V74C60 40.8629 86.8629 14 120 14V14C153.137 14 180 40.8629 180 74V99.8571" stroke="#FF000F" stroke-width="5.48571"/>
<path d="M60 143.179V169.036C60 202.173 86.8629 229.036 120 229.036V229.036C153.137 229.036 180 202.173 180 169.036V143.179" stroke="#FF000F" stroke-width="5.48571"/>
<path d="M135.998 33.4805C135.91 33.4804 135.824 33.4997 135.745 33.537C135.666 33.5743 135.595 33.6286 135.54 33.6961C135.54 33.6961 132.411 37.4458 132.411 42.1941C132.411 43.199 132.536 44.1142 132.74 44.9518C132.072 44.3707 131.312 43.8276 130.454 43.3805C128.348 42.2827 126.103 41.9924 124.384 41.9777C122.664 41.963 121.471 42.2235 121.471 42.2235C121.386 42.2417 121.305 42.2785 121.236 42.3315C121.166 42.3844 121.109 42.4522 121.068 42.5298C121.028 42.6074 121.005 42.6931 121.001 42.7805C120.998 42.868 121.014 42.9552 121.048 43.0358C121.048 43.0358 122.926 47.5413 127.138 49.7368C128.042 50.2078 128.971 50.5292 129.874 50.7447C128.971 50.9597 128.042 51.2814 127.138 51.7525C122.926 53.9481 121.048 58.4535 121.048 58.4535C121.013 58.5343 120.997 58.6217 121 58.7095C121.004 58.7972 121.026 58.8832 121.067 58.9611C121.107 59.039 121.165 59.107 121.235 59.1601C121.305 59.2132 121.386 59.2501 121.471 59.2682C121.471 59.2682 126.242 60.3075 130.454 58.1119C131.312 57.6649 132.072 57.1224 132.74 56.5414C132.537 57.3791 132.411 58.2936 132.411 59.2976C132.411 64.0459 135.54 67.7925 135.54 67.7925C135.595 67.8602 135.665 67.9149 135.745 67.9523C135.824 67.9898 135.911 68.0093 135.998 68.0093C136.086 68.0093 136.173 67.9898 136.252 67.9523C136.331 67.9149 136.401 67.8602 136.457 67.7925C136.457 67.7925 139.585 64.0459 139.585 59.2976C139.585 58.3234 139.454 57.3932 139.244 56.5298C139.915 57.115 140.68 57.6621 141.543 58.1119C145.755 60.3075 150.529 59.2682 150.529 59.2682C150.614 59.2501 150.695 59.2132 150.765 59.1601C150.835 59.107 150.893 59.039 150.933 58.9611C150.974 58.8832 150.996 58.7972 151 58.7095C151.003 58.6217 150.987 58.5343 150.952 58.4535C150.952 58.4535 149.073 53.9481 144.861 51.7525C143.957 51.2815 143.028 50.9597 142.125 50.7447C143.028 50.5292 143.957 50.2079 144.861 49.7368C149.073 47.5413 150.952 43.0358 150.952 43.0358C150.986 42.9552 151.002 42.868 150.999 42.7805C150.995 42.6931 150.972 42.6074 150.932 42.5298C150.891 42.4522 150.834 42.3844 150.764 42.3315C150.695 42.2785 150.614 42.2417 150.529 42.2235C150.529 42.2235 149.335 41.963 147.615 41.9777C145.896 41.9924 143.649 42.2827 141.543 43.3805C140.68 43.8305 139.915 44.3773 139.243 44.9626C139.453 44.099 139.585 43.1686 139.585 42.1941C139.585 37.4458 136.457 33.6961 136.457 33.6961C136.401 33.6285 136.331 33.5741 136.252 33.5368C136.172 33.4995 136.086 33.4803 135.998 33.4805ZM135.998 39.53C136.076 39.5297 136.154 39.5448 136.226 39.5744C136.298 39.604 136.364 39.6477 136.419 39.7027C136.474 39.7578 136.518 39.8232 136.548 39.8953C136.578 39.9674 136.594 40.0447 136.594 40.1228V44.689C136.594 44.7671 136.578 44.8444 136.548 44.9165C136.518 44.9886 136.474 45.054 136.419 45.1091C136.364 45.1642 136.298 45.2078 136.226 45.2374C136.154 45.2671 136.076 45.2822 135.998 45.2819C135.841 45.2816 135.69 45.2191 135.579 45.108C135.468 44.9969 135.405 44.8462 135.405 44.689V40.1228C135.405 39.9656 135.468 39.8149 135.579 39.7038C135.69 39.5927 135.841 39.5302 135.998 39.53ZM126.991 45.0082C127.076 45.0126 127.159 45.0353 127.235 45.0747L131.283 47.1863C131.353 47.2221 131.414 47.2713 131.465 47.3309C131.515 47.3906 131.553 47.4595 131.577 47.5339C131.6 47.6083 131.609 47.6866 131.602 47.7643C131.596 47.8421 131.574 47.9177 131.538 47.987C131.502 48.0564 131.452 48.1181 131.392 48.1683C131.332 48.2186 131.263 48.2565 131.188 48.2798C131.113 48.3032 131.035 48.3115 130.957 48.3044C130.879 48.2972 130.803 48.2747 130.734 48.2382L126.685 46.1289C126.546 46.056 126.442 45.9309 126.394 45.7809C126.347 45.6309 126.362 45.4684 126.434 45.329C126.486 45.2278 126.567 45.1437 126.665 45.0869C126.764 45.03 126.877 45.0027 126.991 45.0082ZM145.008 45.0082C145.122 45.0027 145.235 45.03 145.334 45.0869C145.433 45.1437 145.513 45.2278 145.565 45.329C145.638 45.4684 145.652 45.6309 145.605 45.7809C145.558 45.9309 145.453 46.056 145.314 46.1289L141.262 48.2382C141.123 48.311 140.96 48.3255 140.81 48.2783C140.66 48.2312 140.534 48.1264 140.462 47.987C140.389 47.8475 140.374 47.6848 140.421 47.5346C140.468 47.3845 140.573 47.2592 140.713 47.1863L144.765 45.0747C144.84 45.0354 144.924 45.0127 145.008 45.0082ZM141.019 53.1847C141.104 53.1892 141.187 53.2118 141.262 53.2512L145.314 55.3627C145.453 55.4356 145.558 55.561 145.605 55.7111C145.652 55.8613 145.638 56.024 145.565 56.1635C145.492 56.3027 145.367 56.4074 145.217 56.4545C145.067 56.5015 144.904 56.4872 144.765 56.4147L140.713 54.3054C140.573 54.2325 140.468 54.1072 140.421 53.9571C140.374 53.8069 140.389 53.6442 140.462 53.5047C140.514 53.4035 140.594 53.3195 140.693 53.2628C140.792 53.206 140.905 53.1789 141.019 53.1847ZM131.035 53.1855C131.086 53.1878 131.137 53.1969 131.187 53.2125C131.262 53.2357 131.331 53.2734 131.391 53.3235C131.452 53.3737 131.501 53.4352 131.538 53.5047C131.574 53.574 131.596 53.6496 131.602 53.7274C131.609 53.8051 131.6 53.8834 131.577 53.9578C131.553 54.0322 131.515 54.1011 131.465 54.1608C131.414 54.2204 131.353 54.2696 131.283 54.3054L127.235 56.4147C127.095 56.4875 126.933 56.5019 126.783 56.4548C126.632 56.4077 126.507 56.3029 126.434 56.1635C126.361 56.024 126.347 55.8613 126.394 55.7111C126.441 55.561 126.546 55.4356 126.685 55.3627L130.734 53.2512C130.827 53.2032 130.93 53.1806 131.035 53.1855ZM135.998 56.2067C136.076 56.2064 136.154 56.2216 136.226 56.2515C136.299 56.2813 136.365 56.3252 136.42 56.3806C136.476 56.436 136.519 56.5018 136.549 56.5742C136.579 56.6467 136.594 56.7243 136.594 56.8026V61.3658C136.594 61.4442 136.579 61.5218 136.549 61.5942C136.519 61.6667 136.476 61.7325 136.42 61.7879C136.365 61.8433 136.299 61.8872 136.226 61.917C136.154 61.9468 136.076 61.962 135.998 61.9617C135.92 61.9616 135.843 61.9461 135.771 61.9161C135.699 61.8861 135.633 61.8421 135.578 61.7868C135.523 61.7314 135.479 61.6657 135.45 61.5935C135.42 61.5213 135.405 61.4439 135.405 61.3658V56.8026C135.405 56.7246 135.42 56.6472 135.45 56.575C135.479 56.5027 135.523 56.437 135.578 56.3817C135.633 56.3263 135.699 56.2824 135.771 56.2524C135.843 56.2224 135.92 56.2068 135.998 56.2067Z" fill="#FF000F"/>
<path d="M68 42C51.4315 42 38 55.4315 38 72H98C98 55.4315 84.5685 42 68 42Z" fill="#FF000F"/>
<path d="M98 54.5C88.335 54.5 80.5 62.335 80.5 72H115.5C115.5 62.335 107.665 54.5 98 54.5Z" fill="#FF000F"/>
<path d="M179.5 68C189.441 68 197.5 76.0589 197.5 86H161.5C161.5 76.0589 169.559 68 179.5 68Z" fill="#FF000F"/>
<path d="M161.5 75.5C167.299 75.5 172 80.201 172 86H151C151 80.201 155.701 75.5 161.5 75.5Z" fill="#FF000F"/>
<circle cx="87" cy="88" r="5" fill="#FF000F"/>
</svg>
