<svg width="501" height="500" viewBox="0 0 501 500" fill="none" xmlns="http://www.w3.org/2000/svg">
<path fill-rule="evenodd" clip-rule="evenodd" d="M135 132.198H149.5H331H349.5L364 132.198C364 140.061 358.5 146.639 351.137 148.295C357.628 152.146 360.826 160.102 358.396 167.58C355.966 175.058 348.703 179.615 341.188 178.915C346.171 184.583 346.754 193.138 342.132 199.499C337.511 205.86 329.195 207.949 322.264 204.962C325.252 211.892 323.163 220.208 316.801 224.83C310.44 229.452 301.885 228.869 296.218 223.886C296.917 231.4 292.361 238.664 284.882 241.094C277.404 243.523 269.448 240.325 265.598 233.835C263.941 241.198 257.363 246.698 249.5 246.698C241.637 246.698 235.059 241.198 233.402 233.835C229.552 240.325 221.596 243.523 214.118 241.094C206.639 238.664 202.083 231.4 202.782 223.886C197.115 228.869 188.56 229.452 182.199 224.83C175.837 220.208 173.748 211.892 176.736 204.962C169.806 207.949 161.489 205.86 156.868 199.499C152.246 193.138 152.829 184.583 157.812 178.915C150.297 179.615 143.034 175.058 140.604 167.58C138.174 160.102 141.372 152.146 147.863 148.295C140.5 146.639 135 140.061 135 132.198Z" fill="#FF000F"/>
<circle cx="296.784" cy="73.7912" r="16.5" transform="rotate(-18 296.784 73.7912)" fill="#FF000F"/>
<circle cx="204.216" cy="74.4063" r="16.5" transform="rotate(-162 204.216 74.4063)" fill="#FF000F"/>
<path fill-rule="evenodd" clip-rule="evenodd" d="M103.418 346.675C103.774 346.675 104.181 346.624 104.537 346.573C101.792 344.896 100.623 341.795 100.623 337.831C100.623 318.16 129.595 276.887 141.642 276.887C142.15 276.887 142.607 276.938 143.065 277.09C145.911 278.056 147.08 281.868 147.08 287.053C147.08 299.302 140.727 319.227 135.186 328.021C134.017 326.852 129.595 319.532 128.121 316.127C127.765 315.313 127.206 315.009 126.444 315.009C123.14 315.009 116.99 321.362 116.99 324.768C116.99 325.53 117.345 326.14 118.108 326.496C122.225 328.326 129.189 334.069 131.273 336.56C128.477 341.592 118.108 357.756 111.246 364.821C110.992 365.075 110.839 365.431 110.839 365.787C110.839 368.786 118.515 374.326 122.123 374.326C122.733 374.326 123.191 374.173 123.547 373.868C126.291 371.276 137.321 348.911 139.405 344.54C141.911 347.216 144.332 350.422 146.805 353.697C153.162 362.114 159.859 370.981 169.191 372.445C170.563 372.649 171.885 372.75 173.105 372.75C184.541 372.75 190.539 364.262 190.539 358.62C190.539 357.654 190.336 356.739 189.98 355.977C187.947 359.128 184.897 360.45 181.238 360.45C177.832 360.45 173.918 359.23 170.004 357.298C159.788 352.266 149.317 342.355 145.047 337.831C161.872 328.885 188.354 311.908 193.131 294.372C193.843 291.78 194.148 289.34 194.148 287.103C194.148 275.565 185.863 269.161 181.034 269.161C180.424 269.161 179.916 269.212 179.458 269.415C182.305 271.855 183.576 275.057 183.576 278.767C183.576 291.678 167.768 310.993 146.725 327.411C150.181 320.905 157.399 303.674 157.399 289.848C157.399 282.021 155.111 275.311 148.402 272.312C146.216 271.296 143.827 270.838 141.388 270.838C122.632 270.838 98.5896 298.337 91.2194 319.685C89.9995 323.192 89.4912 326.394 89.4912 329.241C89.4912 340.525 97.5222 346.675 103.418 346.675ZM270.727 313.026C268.024 317.296 261.576 328.633 258.762 338.47C254.533 345.747 249.858 352.69 247.451 352.69C247.349 352.69 247.247 352.69 247.146 352.639C246.332 352.283 245.977 351.47 245.977 350.301C245.977 346.953 248.722 342.302 251.752 337.168C255.485 330.844 259.65 323.789 259.65 317.533V317.279C259.497 309.756 250.958 306.452 244.503 305.334C244.865 304.11 245.299 302.958 245.714 301.855L245.715 301.855L245.715 301.855C246.525 299.706 247.264 297.743 247.264 295.795V295.389C247.061 293.05 244.113 292.085 240.809 292.085C236.59 292.085 231.762 293.711 231.202 296.202C231.101 296.71 231.05 297.32 231.05 297.93C231.464 300.549 232.167 301.519 233.284 303.063C233.859 303.856 234.543 304.801 235.353 306.198C233.066 317.635 214.666 353.418 209.126 353.418C208.922 353.418 208.719 353.367 208.567 353.266C208.058 352.91 207.804 352.198 207.804 351.08C207.804 344.472 216.648 325.31 225.798 312.45C225.95 312.247 226.001 311.993 226.001 311.738C226.001 309.502 220.867 305.487 217.817 305.487C217.106 305.487 216.547 305.69 216.14 306.198C215.351 307.25 214.781 308.167 214.12 309.23C213.631 310.016 213.092 310.882 212.379 311.942C209.888 309.045 206.381 306.096 201.654 306.096C201.146 306.096 200.637 306.147 200.129 306.198L200.129 306.198C189.76 307.52 174.359 326.631 174.359 339.542C174.359 343.608 175.934 347.065 179.645 349.149C181.576 350.216 183.305 350.673 184.88 350.673C190.693 350.673 194.56 344.542 198.076 338.97L198.076 338.969C198.926 337.622 199.755 336.307 200.586 335.12C198.604 339.694 197.232 344.981 197.232 348.539C197.232 348.894 197.398 350.792 197.486 351.08C200.264 360.212 205.659 359.697 211.955 358.728C214.158 358.389 217.767 356.441 219.139 355.374C227.221 349.172 240.131 318.499 243.232 309.146C246.892 310.01 248.315 311.993 248.315 314.737C248.315 319.016 245.998 323.694 243.537 328.664C240.882 334.028 238.057 339.732 237.793 345.641V346.302C237.793 354.587 241.368 357.773 247.095 357.773C250.45 357.773 253.754 356.197 255.939 352.741C256.525 351.815 257.131 350.812 257.75 349.754C259.005 354.56 263.404 357.095 267.677 357.095C270.321 357.095 272.862 356.129 274.59 354.096C275.001 353.612 275.41 353.104 275.817 352.575C271.978 361.561 267.891 370.037 263.581 378.24C263.428 378.545 263.378 378.799 263.378 379.104C263.378 381.798 269.884 384.339 273.798 384.339C275.373 384.339 276.542 383.933 276.746 383.018C278.423 375.851 281.524 366.651 287.572 351.3C294.688 333.104 309.581 312.162 313.698 312.162C313.8 312.162 313.953 312.162 314.054 312.213C314.715 312.467 315.02 313.28 315.02 314.5C315.02 322.48 301.652 347.895 290.978 347.895C290.419 347.895 289.809 347.793 289.25 347.641C290.47 351.961 294.79 353.842 298.958 353.842H299.06C311.259 353.842 324.881 333.307 324.881 319.278C324.881 318.058 324.779 316.889 324.576 315.771C323.559 310.586 319.849 307.028 315.528 307.028C315.172 307.028 314.766 307.028 314.41 307.079C307.599 307.943 299.365 319.227 295.552 324.615L300.889 313.534C300.991 313.28 301.093 312.975 301.093 312.721C301.093 310.434 296.62 308.35 293.57 308.35C292.147 308.35 291.079 308.807 290.774 309.824C289.03 316.066 287.191 322.032 285.263 327.764C278.315 340.547 271.399 351.097 268.847 351.097C268.694 351.097 268.542 351.046 268.389 350.945C268.186 350.741 268.084 350.335 268.084 349.775C268.084 345.455 273.726 331.172 282.367 319.685C282.52 319.481 282.621 319.227 282.621 318.973C282.621 316.584 276.166 312.213 272.608 312.213C271.795 312.213 271.083 312.416 270.727 313.026ZM204.754 322.26C205.11 321.752 205.466 319.007 205.466 316.415C205.466 314.127 205.212 312.043 204.449 311.738C204.348 311.688 204.195 311.688 204.094 311.688C199.57 311.688 184.372 337.865 184.372 342.998C184.372 343.456 184.474 343.761 184.728 343.862C184.749 343.862 184.77 343.871 184.795 343.881C184.829 343.896 184.872 343.913 184.931 343.913C187.117 343.913 196.368 332.985 204.754 322.26ZM365.971 306.977C365.31 306.977 364.751 307.181 364.395 307.638C363.648 308.635 363.096 309.526 362.478 310.526C361.961 311.361 361.398 312.271 360.634 313.382C358.245 310.485 354.84 307.537 350.163 307.537C349.706 307.537 349.198 307.587 348.69 307.638L348.689 307.638C338.422 308.96 322.767 328.376 322.767 341.236C322.767 345.201 324.241 348.556 327.799 350.589C329.679 351.656 331.357 352.114 332.932 352.114C338.622 352.114 342.532 345.982 346.069 340.435L346.069 340.434L346.07 340.433L346.07 340.432C346.925 339.093 347.757 337.787 348.588 336.611C347.266 340.474 346.351 344.133 346.351 347.386C346.351 351.91 348.079 355.57 352.705 357.705C354.179 358.366 355.5 358.721 356.771 358.721C358.482 358.721 360.037 358.13 361.534 356.922C358.253 364.312 354.8 371.372 351.191 378.24C351.039 378.545 350.988 378.799 350.988 379.104C350.988 381.798 357.494 384.339 361.408 384.339C362.984 384.339 364.153 383.933 364.356 383.018C366.034 375.851 369.134 366.651 375.183 351.3C382.299 333.104 397.192 312.162 401.309 312.162C401.41 312.162 401.563 312.162 401.665 312.213C402.325 312.467 402.63 313.28 402.63 314.5C402.63 322.48 389.262 347.895 378.588 347.895C378.029 347.895 377.419 347.793 376.86 347.641C378.08 351.961 382.4 353.842 386.568 353.842H386.67C398.869 353.842 412.491 333.307 412.491 319.278C412.491 318.058 412.39 316.889 412.186 315.771C411.17 310.586 407.459 307.028 403.139 307.028C402.783 307.028 402.376 307.028 402.02 307.079C395.209 307.943 386.975 319.227 383.163 324.615L388.5 313.534C388.602 313.28 388.703 312.975 388.703 312.721C388.703 310.434 384.23 308.35 381.181 308.35C379.757 308.35 378.69 308.807 378.385 309.824C376.458 316.717 374.417 323.273 372.268 329.55C371.224 331.397 370.238 333.153 369.307 334.81C363.031 345.983 359.274 352.673 357.33 352.673C357.178 352.673 357.025 352.622 356.924 352.571C356.72 352.419 356.568 352.063 356.568 351.453C356.568 346.726 363.531 328.58 374.155 314.398C374.307 314.195 374.358 313.941 374.358 313.687C374.358 311.349 369.021 306.977 365.971 306.977ZM353.772 317.296C353.772 320.041 353.366 323.192 352.908 323.751C344.521 334.476 335.27 345.353 333.136 345.353C333.076 345.353 333.034 345.336 332.999 345.321C332.974 345.311 332.953 345.302 332.932 345.302C332.678 345.201 332.577 344.947 332.577 344.489C332.577 339.406 348.029 313.128 352.501 313.128C352.654 313.128 352.756 313.128 352.857 313.179C353.518 313.433 353.772 315.263 353.772 317.296Z" fill="#FF000F"/>
<circle cx="103.856" cy="338.545" r="8.13264" transform="rotate(-162 103.856 338.545)" fill="#FF000F"/>
<circle cx="282.716" cy="300.004" r="8.13264" transform="rotate(-162 282.716 300.004)" fill="#FF000F"/>
<path d="M327.412 450.008H332.233C335.448 450.008 337.519 450.96 338.447 452.864C338.78 453.564 338.947 454.354 338.947 455.232C338.947 456.103 338.829 456.84 338.593 457.442C338.365 458.044 338.044 458.561 337.629 458.992C336.831 459.822 335.733 460.368 334.333 460.628C334.911 462.41 335.891 463.639 337.275 464.314C337.731 464.542 338.113 464.664 338.422 464.681C338.943 464.697 339.309 464.681 339.521 464.632V467H338.972C337.141 467 335.582 466.349 334.296 465.047C333.165 463.916 332.404 462.492 332.014 460.774H329.853V467H327.412V450.008ZM332.075 458.821C333.548 458.821 334.638 458.536 335.346 457.967C336.054 457.397 336.408 456.51 336.408 455.306C336.408 453.702 335.664 452.669 334.174 452.205C333.653 452.042 333.023 451.961 332.282 451.961H329.853V458.821H332.075Z" fill="#FF000F"/>
<path d="M310.117 450.008H321.091V452.132H312.558V457.137H319.016V459.188H312.558V464.852H321.091V467H310.117V450.008Z" fill="#FF000F"/>
<path d="M297.18 452.156H292.065V450.008H304.736V452.156H299.621V467H297.18V452.156Z" fill="#FF000F"/>
<path d="M285.598 465.816C285.02 466.223 284.279 466.544 283.376 466.78C282.473 467.008 281.366 467.122 280.056 467.122C278.754 467.122 277.439 467.045 276.113 466.89V464.522C277.301 464.791 278.497 464.925 279.702 464.925C280.906 464.925 281.809 464.86 282.412 464.729C283.014 464.591 283.498 464.412 283.864 464.192C284.54 463.785 284.877 463.257 284.877 462.605C284.877 462.101 284.747 461.71 284.487 461.434C284.072 461.002 283.474 460.608 282.692 460.25L279.567 458.821C278.493 458.317 277.732 457.849 277.285 457.417C276.324 456.49 275.844 455.416 275.844 454.195C275.844 452.942 276.389 451.928 277.48 451.155C278.676 450.309 280.377 449.886 282.583 449.886C284.007 449.886 285.309 449.943 286.489 450.057V452.388C285.488 452.16 284.369 452.046 283.132 452.046C281.903 452.046 281.008 452.111 280.446 452.242C279.893 452.364 279.458 452.522 279.14 452.718C278.562 453.076 278.273 453.548 278.273 454.134C278.273 454.703 278.457 455.175 278.823 455.55C279.148 455.867 279.742 456.233 280.605 456.648L283.815 458.174C284.882 458.679 285.626 459.155 286.049 459.603C286.481 460.05 286.798 460.502 287.001 460.958C287.205 461.405 287.307 461.946 287.307 462.581C287.307 463.208 287.168 463.802 286.892 464.363C286.615 464.917 286.184 465.401 285.598 465.816Z" fill="#FF000F"/>
<path d="M258.818 450.008H269.792V452.132H261.259V457.137H267.717V459.188H261.259V464.852H269.792V467H258.818V450.008Z" fill="#FF000F"/>
<path d="M239.643 450.008H242.084V456.722H250.117V450.008H252.558V467H250.117V458.87H242.084V467H239.643V450.008Z" fill="#FF000F"/>
<path d="M234.091 466.902C233.286 467.049 232.199 467.122 230.832 467.122C229.473 467.122 228.244 466.935 227.146 466.561C226.055 466.186 225.115 465.633 224.326 464.9C222.633 463.33 221.787 461.141 221.787 458.333C221.787 456.502 222.222 454.915 223.093 453.572C224.273 451.757 226.083 450.602 228.525 450.105C229.274 449.959 230.165 449.886 231.198 449.886C232.24 449.886 233.074 449.943 233.701 450.057V452.388C233.131 452.209 232.248 452.12 231.052 452.12C229.864 452.12 228.854 452.266 228.024 452.559C227.194 452.852 226.507 453.271 225.961 453.816C224.871 454.882 224.326 456.388 224.326 458.333C224.326 460.294 224.863 461.849 225.937 462.996C227.101 464.233 228.773 464.852 230.954 464.852C232.232 464.852 233.278 464.754 234.091 464.559V466.902Z" fill="#FF000F"/>
<path d="M203.356 450.008H205.114L213.989 462.544L213.854 460.787V450.008H216.271V467H214.526L207.116 456.587L205.639 454.463L205.773 456.587V467H203.356V450.008Z" fill="#FF000F"/>
<path d="M189.809 450.008H191.481L198.647 467H196.108L194.387 462.728H186.843L185.134 467H182.644L189.809 450.008ZM193.605 460.774L190.627 453.328L187.636 460.774H193.605Z" fill="#FF000F"/>
<path d="M162.834 450.008H164.396L170.451 456.966L176.481 450.008H178.044V467H175.603V454.061L174.882 455.037L170.451 460.201L166.02 455.049L165.275 454.073V467H162.834V450.008Z" fill="#FF000F"/>
<path d="M291.13 410.008H292.888L301.762 422.544L301.628 420.787V410.008H304.045V427H302.299L294.89 416.587L293.413 414.463L293.547 416.587V427H291.13V410.008Z" fill="#FF000F"/>
<path d="M269.343 418.528C269.343 417.202 269.542 416.001 269.941 414.927C270.34 413.853 270.893 412.938 271.601 412.181C273.09 410.602 275.023 409.812 277.399 409.812C279.784 409.812 281.713 410.602 283.186 412.181C284.683 413.784 285.432 415.9 285.432 418.528C285.432 421.157 284.683 423.265 283.186 424.852C281.721 426.414 279.792 427.195 277.399 427.195C275.015 427.195 273.082 426.414 271.601 424.852C270.096 423.257 269.343 421.149 269.343 418.528ZM271.784 418.516C271.784 420.372 272.236 421.906 273.139 423.118C274.156 424.469 275.576 425.145 277.399 425.145C279.222 425.145 280.638 424.469 281.647 423.118C282.543 421.922 282.99 420.396 282.99 418.541C282.99 416.669 282.543 415.127 281.647 413.914C280.638 412.547 279.222 411.863 277.399 411.863C275.568 411.863 274.148 412.547 273.139 413.914C272.236 415.127 271.784 416.661 271.784 418.516Z" fill="#FF000F"/>
<path d="M250.341 410.008H252.783V427H250.341V410.008Z" fill="#FF000F"/>
<path d="M233.413 410.008H238.234C241.449 410.008 243.52 410.96 244.448 412.864C244.781 413.564 244.948 414.354 244.948 415.232C244.948 416.103 244.83 416.84 244.594 417.442C244.366 418.044 244.045 418.561 243.63 418.992C242.832 419.822 241.734 420.368 240.334 420.628C240.912 422.41 241.892 423.639 243.276 424.314C243.732 424.542 244.114 424.664 244.423 424.681C244.944 424.697 245.31 424.681 245.522 424.632V427H244.973C243.142 427 241.583 426.349 240.297 425.047C239.166 423.916 238.405 422.492 238.015 420.774H235.854V427H233.413V410.008ZM238.076 418.821C239.549 418.821 240.639 418.536 241.347 417.967C242.055 417.397 242.409 416.51 242.409 415.306C242.409 413.702 241.665 412.669 240.175 412.205C239.654 412.042 239.024 411.961 238.283 411.961H235.854V418.821H238.076Z" fill="#FF000F"/>
<path d="M219.658 410.008H221.33L228.496 427H225.957L224.235 422.728H216.691L214.982 427H212.492L219.658 410.008ZM223.454 420.774L220.476 413.328L217.485 420.774H223.454Z" fill="#FF000F"/>
<path d="M196.943 410.008H199.372V417.967L205.915 410.008H208.967L201.997 418.187L209.504 427H206.477L199.372 418.528V427H196.943V410.008Z" fill="#FF000F"/>
</svg>
