<svg width="300" height="300" viewBox="0 0 300 300" fill="none" xmlns="http://www.w3.org/2000/svg">
<path fill-rule="evenodd" clip-rule="evenodd" d="M35 132.198H49.5H231H249.5L264 132.198C264 140.061 258.5 146.639 251.137 148.295C257.628 152.146 260.826 160.102 258.396 167.58C255.966 175.058 248.703 179.615 241.188 178.915C246.171 184.583 246.754 193.138 242.132 199.499C237.511 205.86 229.195 207.949 222.264 204.962C225.252 211.892 223.163 220.208 216.801 224.83C210.44 229.452 201.885 228.869 196.218 223.886C196.917 231.4 192.361 238.664 184.882 241.094C177.404 243.523 169.448 240.325 165.598 233.835C163.941 241.198 157.363 246.698 149.5 246.698C141.637 246.698 135.059 241.198 133.402 233.835C129.552 240.325 121.596 243.523 114.118 241.094C106.639 238.664 102.083 231.4 102.782 223.886C97.1146 228.869 88.5598 229.452 82.1986 224.83C75.8373 220.208 73.7482 211.892 76.7357 204.962C69.8055 207.949 61.4893 205.86 56.8676 199.499C52.2458 193.138 52.8288 184.583 57.8117 178.915C50.2974 179.615 43.0338 175.058 40.604 167.58C38.1742 160.102 41.3722 152.146 47.8627 148.295C40.5 146.639 35 140.061 35 132.198Z" fill="#FF000F"/>
<circle cx="196.784" cy="73.7912" r="16.5" transform="rotate(-18 196.784 73.7912)" fill="#FF000F"/>
<circle cx="104.216" cy="74.4063" r="16.5" transform="rotate(-162 104.216 74.4063)" fill="#FF000F"/>
</svg>
